<svg width="30" height="30" viewBox="0 0 30 30" fill="none" xmlns="http://www.w3.org/2000/svg">
<path class="rayon" d="M9.78003 14.62C9.78003 13.69 10.01 12.82 10.48 12.02C10.95 11.22 11.58 10.58 12.39 10.11C13.2 9.64003 14.06 9.41003 14.99 9.41003C15.69 9.41003 16.36 9.55003 17.01 9.83003C17.65 10.11 18.21 10.48 18.67 10.95C19.14 11.42 19.51 11.97 19.78 12.61C20.05 13.25 20.19 13.93 20.19 14.63C20.19 15.57 19.96 16.44 19.49 17.24C19.02 18.04 18.39 18.67 17.59 19.14C16.79 19.61 15.92 19.84 14.98 19.84C14.04 19.84 13.17 19.61 12.37 19.14C11.57 18.67 10.94 18.04 10.47 17.24C10.02 16.43 9.78003 15.56 9.78003 14.62Z" fill="#FFD700"/>
<path class="rayon" d="M4.62012 14C4.45012 14.17 4.37012 14.38 4.37012 14.62C4.37012 14.86 4.46012 15.06 4.63012 15.23C4.80012 15.4 5.00012 15.48 5.23012 15.48H7.27012C7.50012 15.48 7.70012 15.4 7.85012 15.23C8.00012 15.06 8.07012 14.86 8.07012 14.62C8.07012 14.38 7.99012 14.18 7.84012 14.01C7.68012 13.84 7.49012 13.76 7.26012 13.76H5.22012C5.00012 13.76 4.79012 13.84 4.62012 14Z" fill="#FFD700"/>
<path class="rayon" d="M7.46012 20.94C7.31012 21.12 7.23012 21.32 7.23012 21.55C7.23012 21.78 7.31012 21.98 7.47012 22.14C7.88012 22.46 8.29012 22.46 8.70012 22.14L10.1201 20.72C10.2801 20.54 10.3601 20.32 10.3601 20.08C10.3601 19.85 10.2801 19.66 10.1201 19.51C9.96012 19.36 9.76012 19.28 9.52012 19.28C9.28012 19.28 9.08012 19.35 8.93012 19.51L7.46012 20.94Z" fill="#FFD700"/>
<path class="rayon" d="M7.46012 7.1C7.31012 7.28 7.23012 7.48 7.23012 7.71C7.23012 7.95 7.31012 8.16 7.47012 8.32L8.93012 9.75C9.08012 9.91 9.28012 9.99 9.52012 9.99C9.76012 9.99 9.96012 9.91 10.1201 9.75C10.2801 9.59 10.3601 9.39 10.3601 9.15C10.3601 8.91 10.2801 8.71 10.1201 8.56L8.69012 7.09C8.52012 6.93 8.32012 6.85 8.10012 6.85C7.87012 6.85 7.66012 6.93 7.46012 7.1Z" fill="#FFD700"/>
<path class="rayon" d="M14.3901 21.8C14.2201 21.96 14.1401 22.16 14.1401 22.4V24.39C14.1401 24.63 14.2201 24.84 14.3901 25.01C14.5501 25.18 14.7601 25.26 14.9901 25.26C15.2201 25.26 15.4201 25.18 15.5901 25.01C15.7601 24.84 15.8401 24.63 15.8401 24.39V22.4C15.8401 22.16 15.7601 21.96 15.6001 21.8C15.4401 21.64 15.2301 21.56 14.9901 21.56C14.7601 21.56 14.5601 21.64 14.3901 21.8Z" fill="#FFD700"/>
<path class="rayon" d="M14.1401 4.86V6.9C14.1401 7.13 14.2401 7.33 14.4001 7.48C14.5601 7.63 14.7701 7.71 15.0001 7.71C15.2301 7.71 15.4301 7.64 15.6001 7.48C15.7701 7.32 15.8501 7.13 15.8501 6.9V4.85C15.8501 4.62 15.7701 4.42 15.6001 4.25C15.4301 4.08 15.2401 4 15.0001 4C14.7601 4 14.5601 4.09 14.3901 4.26C14.2201 4.43 14.1401 4.63 14.1401 4.86Z" fill="#FFD700"/>
<path class="rayon" d="M19.8901 19.52C19.7401 19.66 19.6601 19.85 19.6601 20.08C19.6601 20.34 19.7401 20.55 19.8901 20.73L21.3101 22.15C21.7101 22.46 22.1101 22.46 22.5101 22.15C22.6701 21.99 22.7501 21.79 22.7501 21.56C22.7501 21.33 22.6701 21.12 22.5101 20.95L21.0501 19.52C20.8901 19.37 20.6901 19.29 20.4501 19.29C20.2301 19.29 20.0401 19.36 19.8901 19.52Z" fill="#FFD700"/>
<path class="rayon" d="M19.8901 8.57C19.7401 8.71 19.6601 8.91 19.6601 9.16C19.6601 9.4 19.7401 9.6 19.8901 9.76C20.0401 9.92 20.2201 10 20.4501 10C20.6701 10 20.8701 9.92 21.0501 9.76L22.5101 8.33C22.6701 8.17 22.7501 7.96 22.7501 7.71C22.7501 7.48 22.6701 7.28 22.5001 7.11C22.3401 6.94 22.1401 6.86 21.9001 6.86C21.6801 6.86 21.4801 6.94 21.3101 7.1L19.8901 8.57Z" fill="#FFD700"/>
<path class="rayon" d="M22.1601 14C22.0001 14.18 21.9201 14.38 21.9201 14.62C21.9201 14.86 22.0001 15.05 22.1501 15.22C22.3001 15.39 22.5001 15.47 22.7301 15.47H24.7501C24.9801 15.47 25.1801 15.39 25.3501 15.22C25.5201 15.05 25.6101 14.85 25.6101 14.62C25.6101 14.39 25.5201 14.19 25.3501 14.02C25.1801 13.85 24.9801 13.76 24.7501 13.76H22.7301C22.5101 13.76 22.3201 13.84 22.1601 14Z" fill="#FFD700"/>
<style>
.rayon {
  transform-origin: center;
  animation: mymove 10s linear infinite;
}

@keyframes mymove {
  from { transform: rotate(0deg);
  }
  to {
      transform: rotate(359deg);
  }
}
</style>
</svg>