<svg width="30" height="30" viewBox="0 0 30 30" fill="none" xmlns="http://www.w3.org/2000/svg">
<path d="M12.4399 13.2513C13.2282 12.4908 14.165 12.1162 15.2389 12.1162C16.3699 12.1162 17.3295 12.5022 18.1178 13.2854C18.906 14.0686 19.3059 15.0108 19.3059 16.1346C19.3059 16.8384 19.1117 17.5422 18.7233 18.2232C17.6151 17.1335 16.2899 16.5886 14.7362 16.5886H14.3706C14.085 15.3513 13.4453 14.2389 12.4399 13.2513Z" fill="#FFD700"/>
<path class="nuage" d="M4.35 17.0509L4.33538 17.0518L4.32084 17.0535C3.36699 17.1671 2.55569 17.5703 1.91162 18.2719C1.26615 18.975 0.939941 19.8159 0.939941 20.78C0.939941 21.8135 1.31305 22.7073 2.03091 23.448L2.0309 23.448L2.03366 23.4508C2.764 24.1926 3.64089 24.57 4.65994 24.57H15.4999C16.5144 24.57 17.4126 24.1959 18.1363 23.4608C18.8577 22.7278 19.2299 21.8321 19.2299 20.79C19.2299 19.7715 18.853 18.896 18.1235 18.1664C17.3927 17.4357 16.5067 17.06 15.4899 17.06H14.1337L14.0972 16.7568C13.9842 15.5549 13.4761 14.5404 12.5635 13.7276C11.6618 12.9153 10.5829 12.5 9.35994 12.5C8.16643 12.5 7.1065 12.9058 6.21418 13.7195C5.32385 14.5213 4.79896 15.541 4.64409 16.7357L4.60522 17.0356L4.35 17.0509Z" fill="#CECECE" stroke="#CECECE"/>
<path class="rayon5" d="M7.43994 8.07459C7.43994 8.37801 7.54295 8.6435 7.74895 8.87106L8.59874 9.68016C8.92063 9.92037 9.19101 10.0215 9.42277 9.99622C9.69316 9.99622 9.92492 9.88244 10.1309 9.66752C10.3369 9.4526 10.4399 9.18711 10.4399 8.8837C10.4399 8.58028 10.3241 8.32744 10.1052 8.1378L9.34552 7.30341C9.11376 7.10114 8.85625 7 8.56011 7C8.2511 7 7.98071 7.10114 7.76183 7.31606C7.54295 7.51833 7.43994 7.77118 7.43994 8.07459Z" fill="#FFD700"/>
<path class="rayon4" d="M14.5648 7.96162C14.3934 7.78 14.302 7.55297 14.302 7.25784V4.93081C14.302 4.65838 14.382 4.43135 14.5648 4.26108C14.7475 4.09081 14.9646 4 15.2388 4C15.5244 4 15.7529 4.07946 15.9357 4.26108C16.1185 4.4427 16.2098 4.65838 16.2098 4.93081V7.25784C16.2098 7.55297 16.1299 7.78 15.9471 7.96162C15.7643 8.13189 15.5358 8.2227 15.2388 8.2227C14.9646 8.2227 14.7361 8.14324 14.5648 7.96162Z" fill="#FFD700"/>
<path class="rayon3" d="M20.8595 10.5611C20.6881 10.3795 20.6082 10.1524 20.6082 9.8573C20.6082 9.59622 20.6881 9.36919 20.8595 9.15351L22.5389 7.53027C22.7102 7.34865 22.9273 7.25784 23.2015 7.25784C23.4642 7.25784 23.6927 7.34865 23.8755 7.53027C24.0583 7.71189 24.1497 7.93892 24.1497 8.21135C24.1497 8.49514 24.0583 8.73351 23.8755 8.93784L22.2418 10.5611C22.0019 10.7427 21.7734 10.8335 21.5678 10.8335C21.3393 10.8335 21.0994 10.7427 20.8595 10.5611Z" fill="#FFD700"/>
<path class="rayon1" d="M21.7963 24.0124C21.6021 23.8081 21.5107 23.5697 21.5107 23.2973C21.5107 23.0249 21.6135 22.7978 21.8077 22.6162C21.9905 22.4346 22.219 22.3438 22.4932 22.3438C22.7445 22.3438 22.9616 22.4346 23.1443 22.6162L23.8869 23.3541C24.0697 23.5357 24.1611 23.7627 24.1611 24.0124C24.1611 24.2962 24.0697 24.5232 23.8869 24.7162C23.7041 24.9092 23.4756 25 23.2015 25C22.9273 25 22.7102 24.9092 22.5389 24.7276L21.7963 24.0124Z" fill="#FFD700"/>
<path class="rayon2" d="M23.4871 16.793C23.2929 16.6114 23.19 16.3957 23.19 16.1346C23.19 15.8735 23.2814 15.6465 23.4871 15.4535C23.6813 15.2605 23.9098 15.1697 24.184 15.1697H26.5145C26.7772 15.1697 27.0057 15.2719 27.1771 15.4535C27.3485 15.6351 27.4399 15.8622 27.4399 16.1346C27.4399 16.407 27.3599 16.6341 27.1771 16.8043C26.9943 16.9746 26.7772 17.0654 26.5145 17.0654H24.184C23.9098 17.0654 23.6699 16.9746 23.4871 16.793Z" fill="#FFD700"/>
<style>
.nuage {
  transform-origin: center;
  animation: nuagex 900ms infinite alternate ease-in-out;
}

.rayon1 {
  transform-origin: center;
  animation: y1 900ms infinite alternate ease-in-out;
}

.rayon2 {
  transform-origin: center;
  animation: y2 900ms infinite alternate ease-in-out;
}

.rayon3 {
  transform-origin: center;
  animation: y3 900ms infinite alternate ease-in-out;
}

.rayon4 {
  transform-origin: center;
  animation: y4 900ms infinite alternate ease-in-out;
}

.rayon5 {
  transform-origin: center;
  animation: y5 900ms infinite alternate ease-in-out;
}

@keyframes nuagex {
  from { transform: translate(1px,0)
  }
  to {
      transform: translate(0px,0px)
  }
}

@keyframes y1 {
  from { transform: translate(0,0)
  }
  to {
      transform: translate(1px,1px)
  }
}

@keyframes y2 {
  from { transform: translate(0,0)
  }
  to {
      transform: translate(2px,0px)
  }
}

@keyframes y3 {
  from { transform: translate(0,0)
  }
  to {
      transform: translate(1px,-1px)
  }
}

@keyframes y4 {
  from { transform: translate(0,0)
  }
  to {
      transform: translate(0px,-2px)
  }
}

@keyframes y5 {
  from { transform: translate(0,0)
  }
  to {
      transform: translate(-1px,-1px)
  }
}
</style>
</svg>
