<svg width="30" height="30" viewBox="0 0 30 30" fill="none" xmlns="http://www.w3.org/2000/svg">
<path class="nuage" d="M9.91005 14.0509L9.89544 14.0518L9.88089 14.0535C8.92705 14.1671 8.11574 14.5703 7.47167 15.2719C6.82621 15.975 6.5 16.8159 6.5 17.78C6.5 18.8135 6.87311 19.7073 7.59097 20.448L7.59095 20.448L7.59372 20.4508C8.32406 21.1926 9.20095 21.57 10.22 21.57H21.06C22.0745 21.57 22.9727 21.1959 23.6963 20.4608C24.4178 19.7278 24.79 18.8321 24.79 17.79C24.79 16.7715 24.4131 15.896 23.6836 15.1664C22.9528 14.4357 22.0668 14.06 21.05 14.06H19.6938L19.6572 13.7568C19.5443 12.5549 19.0362 11.5404 18.1236 10.7276C17.2218 9.91533 16.1429 9.5 14.92 9.5C13.7265 9.5 12.6666 9.90579 11.7742 10.7195C10.8839 11.5213 10.359 12.541 10.2041 13.7357L10.1653 14.0356L9.91005 14.0509Z" fill="#696969" stroke="#696969"/>
<path class="nuage" d="M5 17.53C5 16.37 5.36 15.35 6.09 14.45C6.81 13.55 7.74 12.97 8.87 12.72C9.16 11.34 9.85 10.22 10.94 9.33C12.03 8.44 13.28 8 14.7 8C16.09 8 17.33 8.43 18.42 9.28C19.5 10.13 20.21 11.23 20.54 12.58H20.88C21.78 12.58 22.61 12.8 23.36 13.24C24.12 13.68 24.71 14.28 25.15 15.04C25.58 15.8 25.8 16.63 25.8 17.53C25.8 18.87 25.34 20.01 24.43 20.97C23.51 21.93 22.39 22.43 21.06 22.47C20.94 22.47 16.2395 22.47 16.0733 22.47V20.79C16.2107 20.79 20.94 20.79 21.06 20.79C21.9 20.72 22.63 20.37 23.23 19.74C23.83 19.11 24.13 18.37 24.13 17.52C24.13 16.63 23.81 15.86 23.17 15.21C22.53 14.57 21.77 14.24 20.88 14.24H19.25C19.13 14.24 19.06 14.18 19.03 14.06L18.96 13.49C18.89 12.78 18.66 12.13 18.26 11.55C17.86 10.97 17.35 10.52 16.73 10.19C16.11 9.86 15.43 9.7 14.71 9.7C13.61 9.7 12.66 10.06 11.85 10.79C11.04 11.52 10.58 12.43 10.48 13.51L10.41 14.05C10.41 14.14 10.36 14.19 10.25 14.19L9.71 14.3C8.87 14.37 8.16 14.71 7.6 15.33C7.03 15.95 6.75 16.68 6.75 17.53C6.75 18.4 7.05 19.15 7.64 19.78C8.23 20.41 8.95 20.75 9.81 20.8C9.93 20.8 15.9359 20.79 16.0733 20.79V22.47C15.8546 22.47 9.93 22.48 9.81 22.48C9.15 22.45 8.53 22.3 7.93 22.03C7.33 21.76 6.82 21.4 6.4 20.96C5.97 20.52 5.63 20.01 5.38 19.41C5.13 18.81 5 18.19 5 17.53Z" fill="#696969"/>
<style>
.nuage {
  transform-origin: center;
  animation: nuagex 900ms infinite alternate ease-in-out;
}
@keyframes nuagex {
  from { transform: translate(1px,0)
  }
  to {
      transform: translate(0px,0px)
  }
}
</style>
</svg>
