<svg width="30" height="30" viewBox="0 0 30 30" fill="none" xmlns="http://www.w3.org/2000/svg">
<path class="nuagex" d="M13.3538 11.7889L13.3408 11.7896L13.3277 11.791C12.5479 11.8738 11.8733 12.1691 11.3316 12.6957C10.7866 13.2256 10.5 13.8732 10.5 14.6224C10.5 15.4256 10.8276 16.1116 11.4305 16.6668L11.4305 16.6668L11.4334 16.6695C12.0457 17.2245 12.7734 17.5 13.6073 17.5H22.3846C23.2142 17.5 23.9594 17.2272 24.5666 16.6766C25.1734 16.1265 25.5 15.4387 25.5 14.6296C25.5 13.8353 25.1677 13.1624 24.5556 12.6161C23.9432 12.0695 23.2084 11.7954 22.3765 11.7954H21.3564L21.3426 11.6938C21.2452 10.7745 20.808 10.0079 20.0491 9.40442C19.2999 8.80224 18.4109 8.5 17.413 8.5C16.4389 8.5 15.565 8.79532 14.8232 9.39896C14.0821 9.99477 13.6334 10.7637 13.5011 11.6743L13.4855 11.7818L13.3538 11.7889Z" fill="#868686" stroke="#868686"/>
<path class="nuagey" d="M6.69141 14.6111L6.67714 14.6119L6.66293 14.6136C5.77488 14.7168 5.01644 15.0837 4.41309 15.7252C3.80794 16.3687 3.5 17.1415 3.5 18.028C3.5 18.9784 3.85221 19.7991 4.52431 20.476L4.52709 20.4788C5.21066 21.1565 6.03032 21.5 6.97976 21.5H17.011C17.9559 21.5 18.7954 21.1597 19.473 20.4878C20.1487 19.8177 20.5 18.9951 20.5 18.037C20.5 17.0996 20.1438 16.2953 19.4609 15.6287C18.777 14.961 17.949 14.6192 17.0017 14.6192H15.7785L15.7498 14.3872C15.6437 13.2863 15.1662 12.3583 14.3141 11.6173C13.4723 10.8771 12.4665 10.5 11.3291 10.5C10.2189 10.5 9.23062 10.8685 8.39745 11.6101C7.56595 12.3412 7.0735 13.2734 6.9283 14.3669L6.89747 14.599L6.69141 14.6111Z" fill="#696969" stroke="#696969"/>
<style>
.nuagex {
  transform-origin: center;
  animation: nuagex 900ms infinite alternate ease-in-out;
}
@keyframes nuagex {
  from { transform: translate(1px,0)
  }
  to {
      transform: translate(0px,0px)
  }
}
.nuagey {
  transform-origin: center;
  animation: nuagey 900ms infinite alternate ease-in-out;
}
@keyframes nuagey {
  from { transform: translate(0,0)
  }
  to {
      transform: translate(1px,0px)
  }
}
</style>
</svg>
