<svg width="30" height="30" viewBox="0 0 30 30" fill="none" xmlns="http://www.w3.org/2000/svg">
<path d="M9.91005 13.0509L9.89544 13.0518L9.88089 13.0535C8.92705 13.1671 8.11574 13.5703 7.47167 14.2719C6.82621 14.975 6.5 15.8159 6.5 16.78C6.5 17.8135 6.87311 18.7073 7.59097 19.448L7.59095 19.448L7.59372 19.4508C8.32406 20.1926 9.20095 20.57 10.22 20.57H21.06C22.0745 20.57 22.9727 20.1959 23.6963 19.4608C24.4178 18.7278 24.79 17.8321 24.79 16.79C24.79 15.7715 24.4131 14.896 23.6836 14.1664C22.9528 13.4357 22.0668 13.06 21.05 13.06H19.6938L19.6572 12.7568C19.5443 11.5549 19.0362 10.5404 18.1236 9.72756C17.2218 8.91533 16.1429 8.5 14.92 8.5C13.7265 8.5 12.6666 8.90579 11.7742 9.7195C10.8839 10.5213 10.359 11.541 10.2041 12.7357L10.1653 13.0356L9.91005 13.0509Z" fill="#696969" stroke="#696969"/>
<path d="M4.77002 17.0401C4.77002 15.8901 5.13002 14.8701 5.85002 13.9701C6.57002 13.0701 7.48002 12.5001 8.58002 12.2401C8.89002 10.8801 9.60002 9.76007 10.69 8.88007C11.78 8.00007 13.03 7.57007 14.44 7.57007C15.82 7.57007 17.04 8.00007 18.12 8.85007C19.2 9.70007 19.9 10.8001 20.22 12.1401H20.54C21.43 12.1401 22.26 12.3601 23.02 12.7901C23.78 13.2201 24.39 13.8201 24.83 14.5701C25.27 15.3201 25.5 16.1501 25.5 17.0401C25.5 17.9201 25.29 18.7301 24.87 19.4801C24.45 20.2301 23.87 20.8301 23.14 21.2801C22.41 21.7301 21.61 21.9701 20.74 21.9901C20.61 21.9901 13 22.0001 13 22.0001V20.3201C13.1445 20.3201 20.61 20.3101 20.74 20.3101C21.59 20.2701 22.32 19.9301 22.92 19.2901C23.52 18.6501 23.82 17.9001 23.82 17.0301C23.82 16.1601 23.49 15.4101 22.84 14.7701C22.19 14.1301 21.42 13.8101 20.53 13.8101H18.92C18.8 13.8101 18.74 13.7501 18.74 13.6401L18.66 13.0601C18.55 11.9801 18.08 11.0701 17.27 10.3501C16.45 9.62007 15.51 9.26007 14.42 9.26007C13.33 9.26007 12.37 9.62007 11.57 10.3501C10.76 11.0801 10.31 11.9801 10.21 13.0601L10.14 13.5901C10.14 13.7101 10.07 13.7801 9.94002 13.7801L9.41002 13.8101C8.58002 13.9101 7.88002 14.2701 7.31002 14.8801C6.74002 15.4901 6.46002 16.2101 6.46002 17.0401C6.46002 17.9101 6.76002 18.6601 7.36002 19.3001C7.96002 19.9401 8.58002 20.3101 9.54002 20.3201C9.65002 20.3201 12.8828 20.3201 13 20.3201V22.0001C13 22.0001 9.65002 22.0001 9.54002 22.0001C8.20002 21.9401 7.07002 21.4301 6.14002 20.4701C5.21002 19.5101 4.77002 18.3701 4.77002 17.0401Z" fill="#696969"/>
<path class="pluie1" d="M10.03 23.3999C9.99999 23.4899 9.98999 23.5599 9.98999 23.5999C9.98999 23.7699 10.04 23.9299 10.15 24.0999C10.26 24.2599 10.42 24.3699 10.64 24.4299C10.65 24.4299 10.68 24.4399 10.74 24.4599C10.78 24.4699 10.81 24.4799 10.85 24.4799C11.27 24.4799 11.55 24.2699 11.67 23.8399L13.3 18.1099C13.37 17.8599 13.34 17.6399 13.22 17.4399C13.1 17.2399 12.92 17.1099 12.68 17.0699C12.59 17.0499 12.51 17.0399 12.44 17.0399C12.29 17.0399 12.13 17.0899 11.98 17.1899C11.83 17.2899 11.72 17.4399 11.66 17.6299L10.03 23.3999Z" fill="#647FDD"/>
<path class="pluie2" d="M15.05 17.6399L12.61 26.4099C12.54 26.6699 12.56 26.8799 12.67 27.0599C12.82 27.2699 12.99 27.3999 13.19 27.4499C13.26 27.4799 13.35 27.4999 13.44 27.4999C13.63 27.4999 13.79 27.4399 13.95 27.3199C14.11 27.1999 14.2 27.0599 14.24 26.8899L16.67 18.1099C16.73 17.8799 16.71 17.6699 16.6 17.4699C16.49 17.2699 16.33 17.1399 16.11 17.0799C16.02 17.0599 15.93 17.0499 15.84 17.0499C15.67 17.0499 15.51 17.0999 15.35 17.1999C15.19 17.2999 15.09 17.4499 15.05 17.6399Z" fill="#647FDD"/>
<path class="pluie3" d="M16.78 23.3899C16.75 23.5099 16.74 23.5799 16.74 23.6199C16.74 23.7799 16.79 23.9399 16.88 24.0899C16.99 24.2499 17.14 24.3499 17.34 24.4099L17.58 24.4599C17.77 24.4599 17.94 24.3999 18.09 24.2899C18.24 24.1799 18.33 24.0199 18.37 23.8299L20 18.0999C20 18.0799 20.01 18.0399 20.02 17.9799C20.03 17.9199 20.04 17.8699 20.04 17.8399C20.04 17.6799 19.99 17.5199 19.89 17.3699C19.79 17.2199 19.64 17.1199 19.43 17.0599C19.34 17.0399 19.25 17.0299 19.17 17.0299C19.01 17.0299 18.86 17.0799 18.71 17.1799C18.57 17.2799 18.47 17.4299 18.41 17.6199L16.78 23.3899Z" fill="#647FDD"/>
<style>
.nuagex {
  transform-origin: center;
  animation: nuagex 900ms infinite alternate ease-in-out;
}
@keyframes nuagex {
  from { transform: translate(1px,0)
  }
  to {
      transform: translate(0px,0px)
  }
}
.pluie1 {
  transform-origin: center;
  animation: tomber 300ms infinite alternate ease-in-out;
}

@keyframes tomber {
  from { transform: translate(0,0)
  }
  to {
      transform: translate(-1px,1px)
  }
}
.pluie2 {
  transform-origin: center;
  animation: tomber 300ms infinite alternate ease-in-out;
}
.pluie3 {
  transform-origin: center;
  animation: tomber 300ms infinite alternate ease-in-out;
}
</style>
</svg>
