<svg width="30" height="30" viewBox="0 0 30 30" fill="none" xmlns="http://www.w3.org/2000/svg">
<path class="nuage" d="M8.91005 13.0509L8.89544 13.0518L8.88089 13.0535C7.92705 13.1671 7.11574 13.5703 6.47167 14.2719C5.82621 14.975 5.5 15.8159 5.5 16.78C5.5 17.8135 5.87311 18.7073 6.59097 19.448L6.59095 19.448L6.59372 19.4508C7.32406 20.1926 8.20095 20.57 9.22 20.57H20.06C21.0745 20.57 21.9727 20.1959 22.6963 19.4608C23.4178 18.7278 23.79 17.8321 23.79 16.79C23.79 15.7715 23.4131 14.896 22.6836 14.1664C21.9528 13.4357 21.0668 13.06 20.05 13.06H18.6938L18.6572 12.7568C18.5443 11.5549 18.0362 10.5404 17.1236 9.72756C16.2218 8.91533 15.1429 8.5 13.92 8.5C12.7265 8.5 11.6666 8.90579 10.7742 9.7195C9.88391 10.5213 9.35902 11.541 9.20415 12.7357L9.16528 13.0356L8.91005 13.0509Z" fill="#696969" stroke="#696969"/>
<path class="nuage" d="M4.6001 16.93C4.6001 15.77 4.9601 14.75 5.6901 13.85C6.4101 12.95 7.3401 12.37 8.4701 12.12C8.7601 10.74 9.4501 9.62002 10.5401 8.73002C11.6301 7.84002 12.8801 7.40002 14.3001 7.40002C15.6901 7.40002 16.9301 7.83002 18.0201 8.68002C19.1001 9.53002 19.8101 10.63 20.1401 11.98H20.4801C21.3801 11.98 22.2101 12.2 22.9601 12.64C23.7201 13.08 24.3101 13.68 24.7501 14.44C25.1801 15.2 25.4001 16.03 25.4001 16.93C25.4001 18.27 24.9401 19.41 24.0301 20.37C23.1101 21.33 21.9901 21.83 20.6601 21.87C20.5401 21.87 15.8396 21.87 15.6734 21.87V20.19C15.8108 20.19 20.5401 20.19 20.6601 20.19C21.5001 20.12 22.2301 19.77 22.8301 19.14C23.4301 18.51 23.7301 17.77 23.7301 16.92C23.7301 16.03 23.4101 15.26 22.7701 14.61C22.1301 13.97 21.3701 13.64 20.4801 13.64H18.8501C18.7301 13.64 18.6601 13.58 18.6301 13.46L18.5601 12.89C18.4901 12.18 18.2601 11.53 17.8601 10.95C17.4601 10.37 16.9501 9.92002 16.3301 9.59002C15.7101 9.26002 15.0301 9.10002 14.3101 9.10002C13.2101 9.10002 12.2601 9.46002 11.4501 10.19C10.6401 10.92 10.1801 11.83 10.0801 12.91L10.0101 13.45C10.0101 13.54 9.9601 13.59 9.8501 13.59L9.3101 13.7C8.4701 13.77 7.7601 14.11 7.2001 14.73C6.6301 15.35 6.3501 16.08 6.3501 16.93C6.3501 17.8 6.6501 18.55 7.2401 19.18C7.8301 19.81 8.5501 20.15 9.4101 20.2C9.5301 20.2 15.536 20.19 15.6734 20.19V21.87C15.4547 21.87 9.5301 21.88 9.4101 21.88C8.7501 21.85 8.1301 21.7 7.5301 21.43C6.9301 21.16 6.4201 20.8 6.0001 20.36C5.5701 19.92 5.2301 19.41 4.9801 18.81C4.7301 18.21 4.6001 17.59 4.6001 16.93Z" fill="#696969"/>
<path class="pluie-basg" d="M10.04 23.57C10.03 23.62 10.02 23.67 10.02 23.7C10.02 23.86 10.07 24.04 10.18 24.2C10.29 24.36 10.45 24.48 10.66 24.54H10.66C10.69 24.54 10.72 24.54 10.76 24.55C10.8 24.55 10.84 24.56 10.87 24.56H10.96C11.34 24.56 11.59 24.34 11.72 23.9L11.96 22.89C12.0428 22.5435 11.9631 22.3756 11.89 22.25C11.77 22.05 11.6 21.92 11.37 21.85C11.14 21.78 10.93 21.8 10.73 21.92C10.53 22.03 10.4 22.21 10.33 22.43L10.06 23.46C10.06 23.48 10.05 23.52 10.04 23.57Z" fill="#647FDD"/>
<path class="pluie-hautg" d="M11.35 18.77C11.34 18.82 11.34 18.86 11.34 18.88C11.34 19.04 11.39 19.19 11.5 19.36C11.61 19.53 11.77 19.64 11.99 19.7C12.22 19.8 12.44 19.8 12.64 19.68C12.84 19.56 12.97 19.37 13.04 19.09L13.28 18.09C13.35 17.86 13.33 17.65 13.21 17.45C13.1 17.25 12.93 17.12 12.7 17.05H12.7C12.68 17.05 12.65 17.05 12.62 17.04C12.59 17.04 12.56 17.03 12.53 17.03H12.45C12.29 17.03 12.13 17.08 11.98 17.18C11.83 17.29 11.72 17.44 11.66 17.63L11.36 18.68V18.68C11.36 18.69 11.36 18.72 11.35 18.77Z" fill="#647FDD"/>
<path class="pluie-basm" d="M12.59 26.7C12.58 26.76 12.57 26.8 12.57 26.83C12.57 27.01 12.63 27.18 12.75 27.34C12.86 27.5 13.02 27.6 13.24 27.64C13.35 27.67 13.43 27.68 13.48 27.68C13.91 27.68 14.17 27.48 14.28 27.07L14.53 26.03C14.59 25.8 14.58 25.59 14.46 25.38C14.34 25.17 14.18 25.04 13.95 24.97C13.72 24.9 13.5 24.93 13.3 25.05C13.1 25.17 12.96 25.35 12.9 25.59L12.61 26.58C12.61 26.61 12.6 26.64 12.59 26.7Z" fill="#647FDD"/>
<path class="pluie-hautm" d="M13.95 21.81C13.92 21.92 13.91 22 13.91 22.06C13.91 22.23 13.97 22.4 14.09 22.55C14.2 22.71 14.36 22.81 14.58 22.85C14.74 22.89 14.85 22.91 14.89 22.91C15.24 22.91 15.48 22.68 15.61 22.23L15.85 21.24C15.92 21 15.9 20.79 15.79 20.59C15.67 20.39 15.51 20.26 15.28 20.2C15.05 20.13 14.83 20.15 14.63 20.27C14.42 20.38 14.29 20.55 14.22 20.78L13.95 21.81Z" fill="#647FDD"/>
<path class="pluie-basd" d="M16.76 23.5C16.74 23.59 16.73 23.67 16.73 23.74C16.74 23.91 16.8 24.08 16.9 24.26C17.01 24.42 17.16 24.52 17.36 24.56C17.44 24.58 17.53 24.59 17.62 24.59C18.05 24.59 18.31 24.39 18.41 23.98L18.7 22.92C18.76 22.7 18.73 22.49 18.61 22.29C18.49 22.08 18.31 21.95 18.08 21.88C17.86 21.82 17.66 21.85 17.45 21.97C17.24 22.09 17.11 22.27 17.04 22.51L16.76 23.5Z" fill="#647FDD"/>
<path class="pluie-hautd" d="M18.16 18.72C18.13 18.86 18.11 18.95 18.11 18.98C18.11 19.14 18.16 19.29 18.27 19.45C18.37 19.59 18.52 19.7 18.73 19.76C18.9 19.8 19.01 19.82 19.07 19.82C19.45 19.82 19.7 19.6 19.83 19.17L20.07 18.14C20.14 17.87 20.12 17.66 20 17.49C19.87 17.29 19.7 17.16 19.48 17.11C19.37 17.08 19.28 17.07 19.24 17.08C19.07 17.07 18.91 17.12 18.75 17.22C18.59 17.32 18.5 17.48 18.46 17.69L18.16 18.72Z" fill="#647FDD"/>
<style>
.nuage {
  transform-origin: center;
  animation: nuagex 1.5s infinite alternate ease-in-out;
}
@keyframes nuagex {
  from { transform: translate(1px,0)
  }
  to {
      transform: translate(0px,0px)
  }
}

.pluie-basg, .pluie-hautg{
    transform-origin: center;
    animation: rain 1s infinite linear;
    animation-delay: 1s;
}

.pluie-basm, .pluie-hautm{
    transform-origin: center;
    animation: rain 1s infinite linear;
    animation-delay: 1.25s;
}

.pluie-basd, .pluie-hautd{
    transform-origin: center;
    animation: rain 1s infinite linear;
    animation-delay: 1.50s;
}

@keyframes rain {
  0% {
    transform: translateY(0);
    }

    100% {
    transform: translateY(10px);
        
    }
}
</style>
</svg>
