<svg width="30" height="30" viewBox="0 0 30 30" fill="none" xmlns="http://www.w3.org/2000/svg">
<path class="snow" d="M7 14.56C7 14.37 7.07 14.2 7.2 14.06C7.33 13.92 7.49 13.85 7.68 13.85C7.87 13.85 8.04 13.92 8.17 14.06C8.3 14.2 8.37 14.36 8.37 14.56C8.37 14.75 8.3 14.91 8.17 15.04C8.04 15.17 7.87 15.24 7.69 15.24C7.51 15.24 7.34 15.17 7.21 15.04C7.06 14.9 7 14.74 7 14.56ZM8.98 14.56C8.98 14.37 9.05 14.2 9.18 14.06C9.31 13.92 9.47 13.85 9.66 13.85H12.89L10.61 11.57C10.47 11.45 10.4 11.29 10.4 11.1C10.4 10.91 10.47 10.75 10.61 10.61C10.75 10.47 10.91 10.4 11.1 10.4C11.29 10.4 11.45 10.47 11.59 10.61L13.86 12.88V9.67C13.86 9.48 13.93 9.31 14.07 9.17C14.21 9.03 14.37 8.96 14.57 8.96C14.76 8.96 14.92 9.03 15.05 9.17C15.18 9.31 15.25 9.47 15.25 9.67V12.9L17.54 10.6C17.68 10.46 17.84 10.39 18.02 10.39C18.2 10.39 18.37 10.46 18.51 10.6C18.63 10.74 18.69 10.9 18.69 11.09C18.69 11.28 18.63 11.44 18.51 11.56L16.23 13.84H19.46C19.64 13.84 19.8 13.91 19.93 14.05C20.06 14.19 20.13 14.35 20.13 14.55C20.13 14.73 20.06 14.89 19.93 15.02C19.8 15.15 19.64 15.22 19.46 15.22H16.23L18.52 17.51C18.64 17.63 18.7 17.79 18.7 17.98C18.7 18.17 18.64 18.33 18.52 18.47C18.38 18.61 18.21 18.68 18.03 18.68C17.85 18.68 17.68 18.61 17.55 18.47L15.26 16.17V19.41C15.26 19.6 15.19 19.77 15.06 19.9C14.93 20.03 14.77 20.1 14.58 20.1C14.39 20.1 14.22 20.03 14.08 19.9C13.94 19.77 13.87 19.6 13.87 19.41V16.19L11.6 18.46C11.46 18.6 11.3 18.67 11.11 18.67C10.92 18.67 10.76 18.6 10.62 18.46C10.48 18.32 10.41 18.16 10.41 17.97C10.41 17.78 10.48 17.63 10.62 17.5L12.92 15.21H9.68C9.49 15.21 9.33 15.14 9.2 15.01C9.04 14.9 8.98 14.74 8.98 14.56ZM8.99 19.4C8.99 19.22 9.06 19.05 9.2 18.92C9.32 18.78 9.48 18.71 9.67 18.71C9.86 18.71 10.02 18.78 10.16 18.92C10.3 19.06 10.37 19.22 10.37 19.4C10.37 19.58 10.3 19.75 10.16 19.88C10.02 20.02 9.86 20.09 9.67 20.09C9.48 20.09 9.32 20.02 9.2 19.88C9.06 19.75 8.99 19.59 8.99 19.4ZM8.99 9.69C8.99 9.51 9.06 9.34 9.2 9.21C9.32 9.07 9.48 9 9.67 9C9.86 9 10.02 9.07 10.16 9.21C10.3 9.35 10.37 9.51 10.37 9.69C10.37 9.87 10.3 10.04 10.16 10.18C10.02 10.32 9.86 10.39 9.67 10.39C9.48 10.39 9.32 10.32 9.2 10.18C9.06 10.04 8.99 9.87 8.99 9.69ZM13.84 21.4C13.84 21.22 13.91 21.06 14.05 20.93C14.19 20.8 14.35 20.73 14.55 20.73C14.74 20.73 14.9 20.8 15.03 20.93C15.16 21.06 15.23 21.22 15.23 21.4C15.23 21.59 15.16 21.76 15.03 21.89C14.9 22.02 14.74 22.09 14.55 22.09C14.36 22.09 14.19 22.02 14.05 21.89C13.91 21.76 13.84 21.6 13.84 21.4ZM13.84 7.69C13.84 7.5 13.91 7.33 14.05 7.2C14.19 7.07 14.35 7 14.55 7C14.74 7 14.9 7.07 15.03 7.2C15.16 7.33 15.23 7.5 15.23 7.69C15.23 7.87 15.16 8.03 15.03 8.16C14.9 8.29 14.74 8.36 14.55 8.36C14.36 8.36 14.19 8.29 14.05 8.16C13.91 8.03 13.84 7.87 13.84 7.69ZM18.71 19.4C18.71 19.22 18.78 19.05 18.92 18.92C19.04 18.78 19.2 18.71 19.39 18.71C19.58 18.71 19.74 18.78 19.88 18.92C20.02 19.06 20.09 19.22 20.09 19.4C20.09 19.58 20.02 19.75 19.88 19.88C19.74 20.02 19.58 20.09 19.39 20.09C19.2 20.09 19.04 20.02 18.92 19.88C18.78 19.75 18.71 19.59 18.71 19.4ZM18.71 9.69C18.71 9.51 18.78 9.34 18.92 9.21C19.04 9.07 19.2 9 19.39 9C19.58 9 19.74 9.07 19.88 9.21C20.02 9.35 20.09 9.51 20.09 9.69C20.09 9.87 20.02 10.04 19.88 10.18C19.74 10.32 19.58 10.39 19.39 10.39C19.2 10.39 19.04 10.32 18.92 10.18C18.78 10.04 18.71 9.87 18.71 9.69ZM20.71 14.56C20.71 14.37 20.78 14.2 20.91 14.06C21.04 13.92 21.21 13.85 21.4 13.85C21.58 13.85 21.74 13.92 21.87 14.06C22 14.2 22.07 14.36 22.07 14.56C22.07 14.74 22 14.9 21.87 15.03C21.74 15.16 21.58 15.23 21.4 15.23C21.21 15.23 21.04 15.16 20.91 15.03C20.78 14.9 20.71 14.74 20.71 14.56Z" fill="#D6F5FF"/>
<style>
.snow {
  transform-origin: center;
  animation: rotate 10s linear infinite;
}

@keyframes rotate {
  from { transform: rotate(0deg);
  }
  to {
      transform: rotate(359deg);
  }
}
</style>
</svg>
