<svg width="30" height="30" viewBox="0 0 30 30" fill="none" xmlns="http://www.w3.org/2000/svg">
<path class="brouillard1" d="M4.6499 15.5C4.6499 15.28 4.7299 15.09 4.8799 14.94C5.0399 14.79 5.2299 14.72 5.4499 14.72H17.5299C17.7499 14.72 17.9299 14.79 18.0699 14.94C18.2099 15.09 18.2899 15.28 18.2899 15.51C18.2899 15.73 18.2199 15.91 18.0699 16.05C17.9299 16.19 17.7499 16.27 17.5299 16.27H5.4499C5.2299 16.27 5.0299 16.2 4.8799 16.05C4.7199 15.9 4.6499 15.72 4.6499 15.5Z" fill="#737373"/>
<path class="brouillard2" d="M19.48 14.93C19.33 15.08 19.26 15.27 19.26 15.5C19.26 15.72 19.33 15.9 19.49 16.03C19.64 16.18 19.83 16.25 20.06 16.25H24.58C24.8 16.25 24.99 16.17 25.14 16.03C25.29 15.89 25.36 15.71 25.36 15.49C25.36 15.27 25.29 15.08 25.14 14.93C24.99 14.78 24.8 14.71 24.57 14.71H20.05C19.82 14.71 19.63 14.78 19.48 14.93Z" fill="#737373"/>
<path class="brouillard3" d="M7.28981 12.0499C7.13981 12.1999 7.05981 12.3799 7.05981 12.5999C7.05981 12.8199 7.14981 13.0099 7.29981 13.1599C7.44981 13.3099 7.63981 13.3899 7.85981 13.3899H19.9398C20.1498 13.3899 20.3298 13.3099 20.4798 13.1599C20.6298 12.9999 20.6998 12.8199 20.6998 12.5999C20.6998 12.3799 20.6298 12.1999 20.4798 12.0499C20.3298 11.8999 20.1498 11.8199 19.9398 11.8199H7.84981C7.62981 11.8199 7.43981 11.8999 7.28981 12.0499Z" fill="#737373"/>
<path class="brouillard4" d="M8.91993 17.8C8.75993 17.95 8.67993 18.13 8.67993 18.34C8.67993 18.56 8.73993 18.75 8.89993 18.9C9.05993 19.05 9.23993 19.13 9.45993 19.13H21.5499C21.7699 19.13 21.9599 19.05 22.1099 18.9C22.2599 18.75 22.3399 18.56 22.3399 18.34C22.3399 18.12 22.2699 17.94 22.1199 17.8C21.9699 17.65 21.7799 17.58 21.5599 17.58H9.45993C9.23993 17.58 9.05993 17.66 8.91993 17.8Z" fill="#737373"/>
<style>
.brouillard1 {
  transform-origin: center;
  animation: x 950ms infinite alternate ease-in-out;
}
@keyframes x {
  from { transform: translate(1px,0)
  }
  to {
      transform: translate(0px,0px)
  }
}
.brouillard2 {
  transform-origin: center;
  animation: x2 900ms infinite alternate ease-in-out;
}
@keyframes x2 {
  from { transform: translate(0px,0)
  }
  to {
      transform: translate(1px,0px)
  }
}

.brouillard3 {
  transform-origin: center;
  animation: x2 1000ms infinite alternate ease-in-out;
}

.brouillard4 {
  transform-origin: center;
  animation: x 1500ms infinite alternate ease-in-out;
}
</style>
</svg>
